<?xml version="1.0" encoding="UTF-8" standalone="no"?>
<!-- Created with Inkscape (http://www.inkscape.org/) -->

<svg
   width="128mm"
   height="128mm"
   viewBox="0 0 128 128"
   version="1.1"
   id="svg5"
   inkscape:version="1.1 (c68e22c387, 2021-05-23)"
   sodipodi:docname="DeleteReelsIcon.svg"
   xmlns:inkscape="http://www.inkscape.org/namespaces/inkscape"
   xmlns:sodipodi="http://sodipodi.sourceforge.net/DTD/sodipodi-0.dtd"
   xmlns="http://www.w3.org/2000/svg"
   xmlns:svg="http://www.w3.org/2000/svg">
  <sodipodi:namedview
     id="namedview7"
     pagecolor="#ffffff"
     bordercolor="#666666"
     borderopacity="1.0"
     inkscape:pageshadow="2"
     inkscape:pageopacity="0.0"
     inkscape:pagecheckerboard="0"
     inkscape:document-units="mm"
     showgrid="false"
     inkscape:zoom="0.24535703"
     inkscape:cx="1200.2917"
     inkscape:cy="674.52724"
     inkscape:window-width="1920"
     inkscape:window-height="1121"
     inkscape:window-x="2391"
     inkscape:window-y="421"
     inkscape:window-maximized="1"
     inkscape:current-layer="layer1" />
  <defs
     id="defs2" />
  <g
     inkscape:label="Layer 1"
     inkscape:groupmode="layer"
     id="layer1">
    <g
       id="g950"
       transform="matrix(0.52620145,0,0,0.52620145,23.027947,-23.365886)">
      <g
         id="g845"
         transform="matrix(0.77829024,0,0,0.77829024,32.283907,148.82806)">
        <path
           d="m 63.49,2.71 c 11.59,-6.04 25.94,-1.64 32.04,9.83 6.1,11.47 1.65,25.66 -9.94,31.7 l -9.53,5.01 c 8.21,0.3 16.04,4.81 20.14,12.52 6.1,11.47 1.66,25.66 -9.94,31.7 l -50.82,26.7 C 23.85,126.21 9.5,121.81 3.4,110.34 -2.7,98.87 1.75,84.68 13.34,78.64 l 9.53,-5.01 C 14.66,73.33 6.83,68.82 2.73,61.11 -3.37,49.64 1.08,35.45 12.67,29.41 Z M 36.06,42.53 66.82,61.52 36.06,80.42 Z"
           fill="#f40407"
           id="path833" />
        <path
           d="M 36.06,42.53 V 80.42 L 66.82,61.52 Z"
           fill="#ffffff"
           id="path835" />
      </g>
      <g
         style="fill:#000000"
         id="g861"
         transform="matrix(0.7452763,0,0,0.7452763,-16.90785,60.198094)">
        <g
           id="g851">
          <g
             id="g849">
            <path
               d="m 235.732,66.214 -28.006,-13.301 1.452,-3.057 c 6.354,-13.379 0.639,-29.434 -12.74,-35.789 L 172.316,2.611 c -6.48,-3.079 -13.771,-3.447 -20.532,-1.042 -6.76,2.406 -12.178,7.301 -15.256,13.782 L 135.076,18.408 107.07,5.106 C 92.417,-1.852 74.831,4.408 67.87,19.061 L 60.7,34.155 c -1.138,2.396 -1.277,5.146 -0.388,7.644 0.89,2.499 2.735,4.542 5.131,5.68 l 74.218,35.25 h -98.18 c -2.797,0 -5.465,1.171 -7.358,3.229 -1.894,2.059 -2.839,4.815 -2.607,7.602 l 13.143,157.706 c 1.53,18.362 17.162,32.745 35.588,32.745 h 73.54 c 18.425,0 34.057,-14.383 35.587,-32.745 l 11.618,-139.408 28.205,13.396 c 1.385,0.658 2.845,0.969 4.283,0.969 3.74,0 7.328,-2.108 9.04,-5.712 l 7.169,-15.093 c 6.957,-14.657 0.697,-32.243 -13.957,-39.204 z M 154.594,23.931 c 0.786,-1.655 2.17,-2.905 3.896,-3.521 1.729,-0.614 3.59,-0.521 5.245,0.267 l 24.121,11.455 c 3.418,1.624 4.878,5.726 3.255,9.144 l -1.452,3.057 -36.518,-17.344 z m 14.847,225.673 c -0.673,8.077 -7.55,14.405 -15.655,14.405 h -73.54 c -8.106,0 -14.983,-6.328 -15.656,-14.405 L 52.35,102.728 H 181.682 Z M 231.62,96.835 228.742,102.895 83.057,33.701 85.936,27.64 c 2.229,-4.695 7.863,-6.698 12.554,-4.469 l 128.661,61.108 c 4.694,2.23 6.699,7.863 4.469,12.556 z"
               id="path847" />
          </g>
        </g>
      </g>
    </g>
  </g>
</svg>
